<svg width="32" height="32" viewBox="0 0 32 32" xmlns="http://www.w3.org/2000/svg">
  <!-- Background -->
  <rect width="32" height="32" rx="4" fill="#1F73B7"/>

  <!-- Calendar body -->
  <rect x="6" y="8" width="20" height="18" rx="1" fill="white"/>

  <!-- Calendar header -->
  <rect x="6" y="8" width="20" height="5" rx="1" fill="#03363D"/>
  <rect x="6" y="9" width="20" height="4" fill="#03363D"/>

  <!-- Binding rings -->
  <circle cx="11" cy="7" r="0.8" fill="#68737D"/>
  <circle cx="16" cy="7" r="0.8" fill="#68737D"/>
  <circle cx="21" cy="7" r="0.8" fill="#68737D"/>

  <!-- Calendar grid dots -->
  <circle cx="9" cy="16" r="0.8" fill="#D8DCDE"/>
  <circle cx="12" cy="16" r="0.8" fill="#D8DCDE"/>
  <circle cx="15" cy="16" r="0.8" fill="#D8DCDE"/>
  <circle cx="18" cy="16" r="0.8" fill="#1F73B7"/>
  <circle cx="21" cy="16" r="0.8" fill="#D8DCDE"/>
  <circle cx="9" cy="19" r="0.8" fill="#D8DCDE"/>
  <circle cx="12" cy="19" r="0.8" fill="#D8DCDE"/>
  <circle cx="15" cy="19" r="0.8" fill="#D8DCDE"/>
  <circle cx="18" cy="19" r="0.8" fill="#D8DCDE"/>
  <circle cx="21" cy="19" r="0.8" fill="#D8DCDE"/>
  <circle cx="9" cy="22" r="0.8" fill="#D8DCDE"/>
  <circle cx="12" cy="22" r="0.8" fill="#D8DCDE"/>
  <circle cx="15" cy="22" r="0.8" fill="#D8DCDE"/>
</svg>
